<svg aria-hidden="true" style="position: absolute; width: 0; height: 0; overflow: hidden;" version="1.1" xmlns="http://www.w3.org/2000/svg" xmlns:xlink="http://www.w3.org/1999/xlink">
<defs>
<symbol id="icon-instagram" viewBox="0 0 32 32">
<path fill="#bfbfc7" style="fill: var(--color1, #bfbfc7)" d="M23.338 0h-14.676c-4.776 0-8.662 3.886-8.662 8.662v14.676c0 4.776 3.886 8.662 8.662 8.662h14.676c4.776 0 8.662-3.886 8.662-8.662v-14.676c0-4.776-3.886-8.662-8.662-8.662v0zM16 24.75c-4.825 0-8.75-3.925-8.75-8.75s3.925-8.75 8.75-8.75c4.825 0 8.75 3.925 8.75 8.75s-3.925 8.75-8.75 8.75zM24.959 9.314c-1.426 0-2.585-1.16-2.585-2.585s1.16-2.586 2.585-2.586c1.426 0 2.586 1.16 2.586 2.586s-1.16 2.585-2.586 2.585z"></path>
<path fill="#bfbfc7" style="fill: var(--color1, #bfbfc7)" d="M15.999 10.667c-2.941 0-5.333 2.392-5.333 5.333s2.393 5.333 5.333 5.333c2.941 0 5.333-2.393 5.333-5.333s-2.392-5.333-5.333-5.333z"></path>
<path fill="#bfbfc7" style="fill: var(--color1, #bfbfc7)" d="M24.959 6.019c-0.391 0-0.709 0.318-0.709 0.709s0.318 0.709 0.709 0.709c0.391 0 0.71-0.318 0.71-0.709s-0.318-0.709-0.71-0.709z"></path>
</symbol>
<symbol id="icon-linkedin" viewBox="0 0 32 32">
<path fill="#bfbfc7" style="fill: var(--color1, #bfbfc7)" d="M31.992 32v-0.001h0.008v-11.544c0-5.648-1.228-9.998-7.897-9.998-3.206 0-5.357 1.742-6.236 3.393h-0.093v-2.866h-6.323v21.015h6.584v-10.406c0-2.74 0.524-5.389 3.952-5.389 3.377 0 3.427 3.127 3.427 5.565v10.231h6.577z"></path>
<path fill="#bfbfc7" style="fill: var(--color1, #bfbfc7)" d="M0.525 10.984h6.592v21.015h-6.592v-21.015z"></path>
<path fill="#bfbfc7" style="fill: var(--color1, #bfbfc7)" d="M3.818 0c-2.108 0-3.818 1.693-3.818 3.78s1.71 3.815 3.818 3.815c2.108 0 3.818-1.729 3.818-3.815-0.001-2.087-1.712-3.78-3.818-3.78v0z"></path>
</symbol>
<symbol id="icon-vk" viewBox="0 0 55 32">
<path fill="#bfbfc7" style="fill: var(--color1, #bfbfc7)" d="M45.298 18.35c-0.883-1.12-0.63-1.618 0-2.619 0.011-0.011 7.297-10.128 8.047-13.559l0.005-0.002c0.373-1.25 0-2.169-1.804-2.169h-5.969c-1.519 0-2.22 0.789-2.595 1.671 0 0-3.039 7.31-7.338 12.048-1.387 1.369-2.029 1.808-2.786 1.808-0.373 0-0.953-0.439-0.953-1.689v-11.669c0-1.499-0.425-2.169-1.683-2.169h-9.385c-0.953 0-1.519 0.699-1.519 1.351 0 1.422 2.149 1.749 2.373 5.749v8.679c0 1.902-0.344 2.251-1.105 2.251-2.029 0-6.953-7.339-9.872-15.739-0.589-1.63-1.165-2.288-2.695-2.288h-5.971c-1.704 0-2.047 0.789-2.047 1.671 0 1.559 2.029 9.31 9.435 19.55 4.936 6.99 11.887 10.777 18.21 10.777 3.801 0 4.265-0.841 4.265-2.288 0-6.679-0.344-7.31 1.56-7.31 0.883 0 2.402 0.439 5.95 3.81 4.056 3.998 4.722 5.787 6.992 5.787h5.969c1.701 0 2.563-0.841 2.068-2.501-1.135-3.49-8.805-10.67-9.151-11.15z"></path>
</symbol>
<symbol id="icon-logo" viewBox="0 0 57 32">
<path fill="#0b7572" style="fill: var(--color2, #0b7572)" d="M1.31 8.605l0.038 4.221c0.522-2.223 1.641-4.261 3.235-5.895 0.131-0.148 0.281-0.279 0.43-0.408l-3.702 2.082zM20.514 26.082c0.43 0 0.767 0.316 0.785 0.726 0 0.316-0.205 0.595-0.486 0.707l-6.62 3.886c-0.205 0.13-0.467 0.149-0.691 0.018l-6.302-3.681-0.018-0.018-6.825-3.831c-0.102-0.057-0.188-0.141-0.247-0.242s-0.090-0.217-0.089-0.334l0.056-7.308-0.074-7.734c-0.019-0.242 0.112-0.483 0.336-0.613l6.396-3.607 6.712-3.943c0.206-0.13 0.468-0.149 0.692-0.018l6.301 3.681h0.018c0.244 0.13 0.393 0.354 0.393 0.632 0 0.41-0.318 0.744-0.748 0.744-0.174 0.002-0.343-0.050-0.486-0.149-0.904-0.485-1.865-0.854-2.861-1.097-1.039-0.257-2.108-0.376-3.179-0.353-3.385 0.074-6.414 1.487-8.582 3.737-1.114 1.151-1.989 2.511-2.576 4.001s-0.875 3.081-0.846 4.683c0.031 1.6 0.379 3.179 1.025 4.644s1.574 2.787 2.734 3.891c2.349 2.241 5.487 3.463 8.732 3.403 1.070-0.020 2.133-0.182 3.161-0.483 1.020-0.301 2-0.726 2.917-1.264l0.018-0.018c0.093-0.019 0.224-0.056 0.356-0.056v-0.001zM1.366 18.739l-0.037 4.221 3.721 2.082-0.093-0.094c-1.739-1.673-3.010-3.811-3.59-6.21zM10.173 27.96l3.646 2.138 3.665-2.157-0.132 0.038c-1.066 0.316-2.187 0.483-3.309 0.502-1.31 0.035-2.617-0.141-3.871-0.52zM17.447 3.548l-3.665-2.139-3.665 2.157c1.113-0.322 2.263-0.504 3.422-0.539 1.121-0.016 2.239 0.109 3.329 0.372 0.206 0.055 0.392 0.092 0.58 0.149v0.001z"></path>
<path fill="#0b7572" style="fill: var(--color2, #0b7572)" d="M17.485 9.107c0.317 0.167 0.43 0.576 0.261 0.892s-0.579 0.428-0.898 0.261c-0.483-0.264-0.999-0.464-1.533-0.595-0.533-0.127-1.079-0.189-1.627-0.186-1.666 0.031-3.253 0.719-4.413 1.915-1.121 1.152-1.776 2.733-1.758 4.462 0.016 0.822 0.195 1.633 0.525 2.386s0.807 1.433 1.401 2.002c0.595 0.573 1.299 1.023 2.069 1.323s1.592 0.444 2.419 0.425c0.374 0 0.673 0.279 0.673 0.651s-0.28 0.67-0.655 0.67c-2.023 0.040-3.979-0.722-5.441-2.12-0.723-0.687-1.302-1.511-1.703-2.424s-0.617-1.896-0.635-2.893c-0.019-0.998 0.159-1.99 0.525-2.919s0.912-1.776 1.607-2.492c0.694-0.72 1.524-1.297 2.442-1.696s1.905-0.613 2.905-0.629c0.668-0.019 1.335 0.057 1.982 0.224 0.636 0.186 1.272 0.427 1.852 0.743z"></path>
<path fill="#0b7572" style="fill: var(--color2, #0b7572)" d="M8.678 8.512c0.13-0.092 0.299-0.055 0.393 0.074s0.056 0.298-0.075 0.391c-1.116 0.776-2.022 1.818-2.636 3.031-0.608 1.211-0.916 2.55-0.898 3.905 0.038 2.286 1.029 4.35 2.562 5.819l0.018 0.018c0.787 0.755 1.717 1.345 2.734 1.738s2.103 0.579 3.193 0.549c0.728-0.017 1.451-0.13 2.151-0.335 0.691-0.204 1.365-0.483 2.001-0.874 0.131-0.074 0.318-0.038 0.392 0.092s0.038 0.316-0.094 0.391c-0.668 0.4-1.384 0.713-2.132 0.93-0.747 0.223-1.515 0.335-2.3 0.353-2.355 0.053-4.634-0.829-6.339-2.454l-0.018-0.018c-0.847-0.8-1.525-1.762-1.994-2.828s-0.719-2.216-0.736-3.381c-0.038-1.469 0.318-2.901 0.954-4.184 0.678-1.277 1.645-2.379 2.824-3.217z"></path>
<path fill="#0b7572" style="fill: var(--color2, #0b7572)" d="M11.203 16.043c-0.018 0-0.038-0.13-0.038-0.279s0.019-0.279 0.038-0.279h2.318v-2.566c0-0.018 0.132-0.037 0.281-0.037s0.281 0.018 0.281 0.037v2.566h2.318c0.020 0 0.038 0.13 0.038 0.279s-0.019 0.279-0.038 0.279h-2.319v2.566c0 0.018-0.131 0.038-0.281 0.038s-0.28-0.019-0.28-0.038v-2.566h-2.319zM31.863 9.664h-8.502c-0.323 0-0.516 0.106-0.516 0.51v10.54c0 0.404 0.194 0.51 0.516 0.51h1.76c0.344 0 0.515-0.106 0.515-0.51v-8.585h3.95v8.585c0 0.404 0.193 0.51 0.515 0.51h1.761c0.322 0 0.515-0.106 0.515-0.51v-10.54c0-0.404-0.193-0.51-0.515-0.51zM43.156 22.137c0 0.404 0.193 0.51 0.516 0.51h1.459c0.323 0 0.516-0.106 0.516-0.51v-3.017c0-0.319-0.107-0.51-0.516-0.51h-0.858v-8.436c0-0.404-0.193-0.51-0.515-0.51h-6.806c-0.322 0-0.515 0.106-0.515 0.51l-0.558 7.267c-0.043 0.659-0.215 1.169-1.181 1.169-0.408 0-0.515 0.191-0.515 0.51v3.017c0 0.404 0.193 0.51 0.515 0.51h1.482c0.322 0 0.515-0.106 0.515-0.51v-1.105h6.484v1.105h-0.022zM38.605 17.589l0.45-5.546h2.533v6.694h-3.692c0.429-0.149 0.665-0.51 0.709-1.148zM55.801 15.23c0.15-0.063 1.288-0.637 1.288-2.401 0-1.636-1.245-3.166-4.122-3.166h-4.959c-0.408 0-0.515 0.191-0.515 0.51v10.54c0 0.319 0.107 0.51 0.515 0.51h5.217c2.469 0 4.23-1.147 4.23-3.378 0.009-0.549-0.142-1.090-0.436-1.554s-0.717-0.833-1.217-1.060h-0.001zM53.246 18.715h-2.983v-6.587h2.705c0.923 0 1.482 0.191 1.482 0.978 0 0.68-0.451 1.040-1.482 1.040h-0.236c-0.408 0-0.515 0.192-0.515 0.51v1.339c0 0.319 0.107 0.51 0.515 0.51h0.408c0.859 0 1.482 0.255 1.482 1.062s-0.494 1.148-1.374 1.148l-0.001-0.001z"></path>
</symbol>
<symbol id="icon-dovfoto" viewBox="0 0 34 32">
<path fill="#fff" style="fill: var(--color3, #fff)" d="M13.474 6.316c0 0.698-0.566 1.263-1.263 1.263h-10.947c-0.698 0-1.263-0.566-1.263-1.263s0.566-1.263 1.263-1.263h10.947c0.698 0 1.263 0.566 1.263 1.263z"></path>
<path fill="#fff" style="fill: var(--color3, #fff)" d="M0 30.316v-25.263h2.526v25.263h-2.526z"></path>
<path fill="#fff" style="fill: var(--color3, #fff)" d="M26.947 32h-26.947v-2.526h26.947v2.526z"></path>
<path fill="#fff" style="fill: var(--color3, #fff)" d="M25.684 32c-0.698 0-1.263-0.566-1.263-1.263v-10.947c0-0.698 0.566-1.263 1.263-1.263s1.263 0.566 1.263 1.263v10.947c0 0.698-0.566 1.263-1.263 1.263z"></path>
<path fill="#fff" style="fill: var(--color3, #fff)" d="M26.526 0c0.698 0 1.263 0.566 1.263 1.263v10.947c0 0.698-0.566 1.263-1.263 1.263s-1.263-0.566-1.263-1.263v-10.947c0-0.698 0.566-1.263 1.263-1.263z"></path>
<path fill="#fff" style="fill: var(--color3, #fff)" d="M33.684 6.316c0 0.698-0.566 1.263-1.263 1.263h-10.947c-0.698 0-1.263-0.566-1.263-1.263s0.566-1.263 1.263-1.263h10.947c0.698 0 1.263 0.566 1.263 1.263z"></path>
</symbol>
<symbol id="icon-makarov" viewBox="0 0 32 32">
<path d="M32 16c0 8.837-7.163 16-16 16s-16-7.163-16-16c0-8.837 7.163-16 16-16s16 7.163 16 16z"></path>
</symbol>
<symbol id="icon-valerieva" viewBox="0 0 32 32">
<path d="M32 16c0 8.837-7.163 16-16 16s-16-7.163-16-16c0-8.837 7.163-16 16-16s16 7.163 16 16z"></path>
</symbol>
<symbol id="icon-arkadiev" viewBox="0 0 32 32">
<path d="M32 16c0 8.837-7.163 16-16 16s-16-7.163-16-16c0-8.837 7.163-16 16-16s16 7.163 16 16z"></path>
</symbol>
<symbol id="icon-tel" viewBox="0 0 23 32">
<path fill="#0b7572" style="fill: var(--color2, #0b7572)" d="M10.988 6.699l-3.36-5.827c-0.855-1.482-2.335-0.626-2.335-0.626l-2.072 1.198 5.069 8.791 2.072-1.198c1.48-0.855 0.626-2.337 0.626-2.337zM19.599 31.537l-5.069-8.791c-1.252 0.723-2.399-0.613-3.455-2.046-0.696-0.953-1.33-1.944-1.895-2.92-0.562-0.978-1.101-2.023-1.578-3.104-0.712-1.631-1.249-3.322-0.043-4.019l-5.069-8.791c-1.786 1.033-5.34 6.531 1.725 18.783l0 0.001c7.086 12.289 13.598 11.92 15.383 10.887zM23.027 27.579l-3.36-5.827c-0.855-1.482-2.335-0.626-2.335-0.626l-2.073 1.198 5.069 8.791 2.072-1.198c1.48-0.856 0.626-2.338 0.626-2.338z"></path>
</symbol>
<symbol id="icon-mail" viewBox="0 0 51 32">
<path fill="#0b7572" style="fill: var(--color2, #0b7572)" d="M3.746 0c-0.736 0-1.412 0.218-1.99 0.577l22.166 18.481c1.015 0.847 2.382 0.847 3.395 0l22.127-18.481c-0.578-0.359-1.254-0.577-1.99-0.577h-43.707zM0.215 2.481c-0.134 0.38-0.215 0.785-0.215 1.212v24.615c0 0.741 0.226 1.423 0.605 2l15.863-14.25-16.254-13.577zM50.985 2.481l-16.215 13.558 15.824 14.269c0.379-0.577 0.605-1.259 0.605-2v-24.615c0-0.426-0.081-0.831-0.215-1.212zM32.859 17.654l-3.941 3.288c-1.906 1.594-4.708 1.592-6.615 0l-3.922-3.269-15.746 14.154c0.352 0.108 0.723 0.173 1.112 0.173h43.707c0.389 0 0.76-0.065 1.112-0.173l-15.707-14.173z"></path>
</symbol>
<symbol id="icon-watsapp" viewBox="0 0 32 32">
<path fill="#0b7572" style="fill: var(--color2, #0b7572)" d="M16 0c-8.844 0-16 7.152-16 16 0 3.337 1.018 6.423 2.825 9.075 0.067 0.1 0.111 0.213 0.129 0.332s0.008 0.241-0.029 0.355l-1.625 5.438 5.325-1.837c0.114-0.038 0.235-0.050 0.354-0.035s0.233 0.057 0.334 0.122c2.494 1.618 5.48 2.55 8.688 2.55 8.848 0 16-7.152 16-16s-7.152-16-16-16zM9.45 6.975l2.912 4.813-1.213 1.2c-0.123 0.125-0.203 0.286-0.225 0.46s0.013 0.35 0.1 0.502c1.85 3.204 4.043 5.697 7.113 7.050 0.147 0.065 0.311 0.085 0.469 0.056s0.304-0.105 0.419-0.218l1.288-1.288 4.7 2.938c-0.52 1.171-1.199 1.869-1.975 2.275-0.899 0.471-1.997 0.56-3.25 0.3-2.506-0.52-5.533-2.489-8-5.012s-4.376-5.591-4.862-8.088c-0.243-1.248-0.136-2.323 0.325-3.175 0.397-0.734 1.071-1.362 2.2-1.813z"></path>
</symbol>
<symbol id="icon-rosscosm" viewBox="0 0 26 32">
<path fill="#fff" style="fill: var(--color3, #fff)" d="M22.093 4.017c-2.313-2.313-5.507-3.743-9.037-3.743s-6.725 1.43-9.038 3.743c-2.313 2.313-3.743 5.507-3.743 9.038s1.43 6.725 3.743 9.038c2.313 2.313 5.507 3.743 9.038 3.743s6.725-1.43 9.038-3.743c2.313-2.313 3.743-5.507 3.743-9.038s-1.43-6.725-3.743-9.038z"></path>
<path fill="#c5c9cc" style="fill: var(--color4, #c5c9cc)" d="M0 13.056c0-7.211 5.845-13.056 13.056-13.056v0.274c-3.53 0-6.724 1.43-9.038 3.744s-3.743 5.508-3.744 9.038c0 3.53 1.431 6.724 3.744 9.037s5.508 3.743 9.038 3.743c3.53 0 6.724-1.43 9.038-3.743s3.744-5.508 3.744-9.037c0-3.53-1.43-6.725-3.744-9.038s-5.508-3.744-9.038-3.744v-0.274c7.21 0 13.056 5.845 13.056 13.056-0 7.21-5.845 13.055-13.056 13.055s-13.055-5.845-13.056-13.055z"></path>
<path fill="#a0a4a7" style="fill: var(--color5, #a0a4a7)" d="M13.056 9.329l0.088-0.025c-4.39 1.363-7.864 3.697-7.935 5.411-0.076 1.835 3.774 2.265 8.597 0.962s8.797-3.849 8.873-5.683c0.039-0.951-0.976-1.524-2.635-1.675 2.027 0.091 3.297 0.681 3.297 1.736 0 2.010-4.606 4.946-10.286 6.556s-10.286 1.284-10.286-0.726c0-2.010 4.606-4.946 10.286-6.556z"></path>
<path fill="#e63f3f" style="fill: var(--color6, #e63f3f)" d="M4.785 19.9l14.259-13.689-1.293 10.761-2.358-2.7-10.609 5.628z"></path>
<path fill="#a0a4a7" style="fill: var(--color5, #a0a4a7)" d="M0.918 29.995c0.252 0 0.43-0.039 0.533-0.128 0.104-0.084 0.158-0.227 0.158-0.425 0-0.375-0.237-0.563-0.716-0.563h-0.257v1.116l0.282-0zM0.908 30.227h-0.272v1.279h-0.262v-2.859h0.494c0.316 0 0.563 0.059 0.751 0.183 0.183 0.119 0.272 0.321 0.272 0.593 0 0.316-0.089 0.523-0.272 0.637s-0.42 0.168-0.711 0.168zM3.679 31.358c0.237 0 0.444-0.054 0.637-0.168 0.193-0.109 0.341-0.262 0.449-0.449 0.114-0.193 0.168-0.405 0.168-0.642 0-0.207-0.044-0.405-0.138-0.602s-0.237-0.36-0.425-0.489c-0.188-0.128-0.415-0.193-0.681-0.193-0.188 0-0.38 0.044-0.578 0.138-0.193 0.094-0.356 0.237-0.484 0.43s-0.193 0.43-0.193 0.696c0 0.227 0.049 0.439 0.153 0.632 0.109 0.193 0.257 0.351 0.449 0.464 0.193 0.123 0.405 0.183 0.642 0.183zM3.679 31.58c-0.267 0-0.519-0.059-0.751-0.173-0.237-0.118-0.425-0.291-0.563-0.518s-0.212-0.499-0.212-0.815c0-0.301 0.074-0.563 0.222-0.79 0.143-0.222 0.336-0.395 0.578-0.519 0.237-0.123 0.489-0.183 0.746-0.183 0.227 0 0.43 0.040 0.612 0.119 0.183 0.074 0.341 0.183 0.474 0.321 0.138 0.133 0.242 0.296 0.316 0.479 0.074 0.193 0.109 0.385 0.109 0.593 0 0.296-0.064 0.558-0.202 0.785s-0.326 0.4-0.558 0.519c-0.232 0.123-0.489 0.183-0.77 0.183zM7.066 28.815c-0.247 0-0.469 0.054-0.652 0.158-0.188 0.104-0.326 0.252-0.425 0.439-0.104 0.198-0.153 0.42-0.153 0.672 0 0.39 0.114 0.701 0.336 0.928s0.519 0.341 0.884 0.341c0.316 0 0.622-0.114 0.913-0.341v0.301c-0.133 0.084-0.277 0.143-0.43 0.188-0.163 0.049-0.326 0.069-0.499 0.069-0.227 0-0.454-0.040-0.676-0.124s-0.415-0.237-0.573-0.459c-0.163-0.217-0.242-0.514-0.242-0.889 0-0.272 0.054-0.523 0.158-0.756 0.099-0.227 0.267-0.41 0.494-0.548 0.232-0.143 0.523-0.212 0.869-0.212 0.321 0 0.632 0.099 0.923 0.306l-0.010 0.281c-0.109-0.089-0.232-0.173-0.375-0.247-0.148-0.074-0.326-0.109-0.543-0.109zM8.419 31.506v-2.859h0.262v1.338l1.289-1.338h0.341l-1.353 1.373 1.422 1.486h-0.375l-1.323-1.447v1.447l-0.262-0zM12.127 31.358c0.232 0 0.444-0.054 0.637-0.168 0.188-0.109 0.341-0.262 0.449-0.449 0.109-0.193 0.168-0.405 0.168-0.642 0-0.207-0.049-0.405-0.138-0.602-0.099-0.198-0.237-0.36-0.425-0.489-0.193-0.128-0.415-0.193-0.681-0.193-0.193 0-0.385 0.044-0.578 0.138-0.198 0.094-0.361 0.237-0.489 0.43s-0.193 0.43-0.193 0.696c0 0.227 0.054 0.439 0.158 0.632s0.252 0.351 0.449 0.464c0.188 0.123 0.405 0.183 0.642 0.183zM12.127 31.58c-0.267 0-0.519-0.059-0.751-0.173-0.237-0.118-0.425-0.291-0.563-0.518-0.143-0.227-0.212-0.499-0.212-0.815 0-0.301 0.074-0.563 0.217-0.79 0.148-0.222 0.341-0.395 0.578-0.519 0.242-0.123 0.489-0.183 0.751-0.183 0.227 0 0.43 0.040 0.612 0.119 0.183 0.074 0.341 0.183 0.474 0.321 0.133 0.133 0.237 0.296 0.311 0.479 0.074 0.193 0.114 0.385 0.114 0.593 0 0.296-0.069 0.558-0.207 0.785s-0.321 0.4-0.553 0.519c-0.232 0.123-0.489 0.183-0.77 0.183zM15.515 28.815c-0.252 0-0.469 0.054-0.657 0.158-0.183 0.104-0.326 0.252-0.425 0.439-0.099 0.198-0.148 0.42-0.148 0.672 0 0.39 0.109 0.701 0.336 0.928 0.222 0.227 0.513 0.341 0.879 0.341 0.321 0 0.627-0.114 0.919-0.341l-0.005 0.301c-0.133 0.084-0.276 0.143-0.43 0.188-0.158 0.049-0.326 0.069-0.499 0.069-0.222 0-0.449-0.040-0.677-0.124-0.222-0.084-0.41-0.237-0.568-0.459-0.163-0.217-0.242-0.514-0.242-0.889 0-0.272 0.049-0.523 0.153-0.756 0.104-0.227 0.267-0.41 0.499-0.548 0.227-0.143 0.518-0.212 0.869-0.212 0.321 0 0.627 0.099 0.918 0.306l-0.005 0.281c-0.109-0.089-0.237-0.173-0.38-0.247s-0.326-0.109-0.538-0.109zM18.196 31.61l-1.002-2.286-0.217 2.183h-0.267l0.39-2.982 1.096 2.548 1.136-2.548 0.37 2.982h-0.272l-0.207-2.183-1.027 2.286zM21.426 31.358c0.232 0 0.444-0.054 0.632-0.168 0.192-0.109 0.341-0.262 0.454-0.449 0.109-0.193 0.163-0.405 0.163-0.642 0-0.207-0.044-0.405-0.138-0.602s-0.237-0.36-0.425-0.489c-0.188-0.128-0.415-0.193-0.681-0.193-0.188 0-0.38 0.044-0.573 0.138-0.198 0.094-0.36 0.237-0.489 0.43s-0.193 0.43-0.193 0.696c0 0.227 0.049 0.439 0.158 0.632 0.104 0.193 0.252 0.351 0.444 0.464 0.193 0.123 0.405 0.183 0.647 0.183zM21.426 31.58c-0.271 0-0.519-0.059-0.756-0.173-0.232-0.118-0.42-0.291-0.563-0.518-0.138-0.227-0.207-0.499-0.207-0.815 0-0.301 0.069-0.563 0.217-0.79 0.148-0.222 0.341-0.395 0.578-0.519s0.489-0.183 0.746-0.183c0.227 0 0.435 0.040 0.612 0.119 0.183 0.074 0.341 0.183 0.479 0.321 0.133 0.133 0.237 0.296 0.311 0.479 0.074 0.193 0.114 0.385 0.114 0.593 0 0.296-0.069 0.558-0.207 0.785s-0.321 0.4-0.558 0.519c-0.232 0.123-0.489 0.183-0.765 0.183zM24.813 28.815c-0.252 0-0.469 0.054-0.657 0.158-0.183 0.104-0.326 0.252-0.424 0.439-0.099 0.198-0.153 0.42-0.153 0.672 0 0.39 0.114 0.701 0.336 0.928 0.227 0.227 0.518 0.341 0.884 0.341 0.316 0 0.622-0.114 0.919-0.341l-0.005 0.301c-0.133 0.084-0.276 0.143-0.43 0.188-0.158 0.049-0.326 0.069-0.499 0.069-0.227 0-0.449-0.040-0.677-0.124-0.222-0.084-0.415-0.237-0.573-0.459-0.158-0.217-0.242-0.514-0.242-0.889 0-0.272 0.054-0.523 0.158-0.756 0.104-0.227 0.267-0.41 0.499-0.548 0.227-0.143 0.518-0.212 0.869-0.212 0.321 0 0.627 0.099 0.918 0.306l-0.010 0.281c-0.104-0.089-0.232-0.173-0.375-0.247s-0.326-0.109-0.538-0.109z"></path>
</symbol>
<symbol id="icon-track" viewBox="0 0 32 32">
<path fill="#e9e9ec" style="fill: var(--color7, #e9e9ec)" d="M32 16c0 8.837-7.163 16-16 16s-16-7.163-16-16c0-8.837 7.163-16 16-16s16 7.163 16 16z"></path>
<path fill="#0b7572" style="fill: var(--color2, #0b7572)" d="M21.316 18.686h-10.309c0.001-0.325-0.102-0.642-0.296-0.903s-0.466-0.453-0.777-0.547v-6.99c0.24-0.068 0.459-0.196 0.635-0.373s0.303-0.396 0.37-0.637h4.831c0.071 0.239 0.2 0.457 0.376 0.633s0.394 0.306 0.633 0.376v2.256l-0.903 0.908-0.483-0.483c-0.039-0.040-0.087-0.072-0.138-0.093s-0.107-0.033-0.164-0.033c-0.056 0-0.112 0.011-0.164 0.033s-0.099 0.053-0.138 0.093c-0.040 0.040-0.072 0.087-0.093 0.14s-0.033 0.108-0.033 0.165c0 0.057 0.011 0.113 0.033 0.165s0.053 0.1 0.093 0.14l0.483 0.483-0.483 0.483c-0.040 0.040-0.072 0.087-0.093 0.14s-0.033 0.108-0.033 0.165c0 0.057 0.011 0.113 0.033 0.165s0.053 0.1 0.093 0.14c0.040 0.040 0.087 0.072 0.138 0.093s0.107 0.033 0.164 0.033c0.056 0 0.112-0.011 0.164-0.033s0.099-0.053 0.138-0.093l0.483-0.483 1.029 1.029c0.040 0.040 0.087 0.072 0.138 0.093s0.107 0.033 0.164 0.033 0.112-0.011 0.164-0.033c0.052-0.022 0.099-0.053 0.138-0.093l1.068-1.034 0.483 0.483c0.039 0.045 0.086 0.081 0.14 0.107s0.112 0.040 0.171 0.042c0.059 0.002 0.118-0.008 0.173-0.030s0.105-0.055 0.147-0.097c0.042-0.042 0.074-0.092 0.096-0.147s0.031-0.114 0.029-0.173-0.017-0.117-0.043-0.17c-0.026-0.053-0.063-0.101-0.108-0.139l-0.483-0.483 0.483-0.483c0.040-0.040 0.072-0.087 0.093-0.14s0.033-0.108 0.033-0.165c0-0.057-0.011-0.113-0.033-0.165s-0.053-0.1-0.093-0.14c-0.040-0.040-0.087-0.072-0.138-0.093s-0.107-0.033-0.164-0.033c-0.056 0-0.112 0.011-0.164 0.033s-0.099 0.053-0.138 0.093l-0.483 0.483-0.899-0.903v-2.256c0.249-0.074 0.475-0.212 0.655-0.4s0.308-0.419 0.372-0.671c0.064-0.252 0.061-0.517-0.008-0.767s-0.202-0.479-0.386-0.663c-0.184-0.184-0.412-0.317-0.663-0.386s-0.515-0.072-0.767-0.008c-0.252 0.064-0.483 0.192-0.671 0.372s-0.326 0.406-0.4 0.655h-4.831c-0.076-0.247-0.214-0.469-0.401-0.647s-0.416-0.304-0.666-0.368c-0.25-0.063-0.512-0.061-0.761 0.006s-0.476 0.198-0.66 0.378-0.318 0.406-0.39 0.654c-0.072 0.248-0.079 0.51-0.020 0.761s0.181 0.483 0.356 0.673c0.174 0.19 0.395 0.332 0.64 0.412v7c-0.311 0.094-0.584 0.285-0.777 0.547s-0.297 0.578-0.296 0.903c0 0.14 0 0.271 0 0.387-0.002 0.013-0.002 0.026 0 0.039v2.58c0.004 0.795 0.322 1.556 0.885 2.117s1.325 0.877 2.12 0.878h10.309c0.797 0 1.561-0.317 2.125-0.88s0.88-1.328 0.88-2.125-0.317-1.561-0.88-2.125c-0.564-0.564-1.328-0.88-2.125-0.88zM17.934 14.014l-0.705 0.729-0.72-0.729 0.72-0.725 0.705 0.725zM21.316 22.976c-0.256 0.001-0.506-0.074-0.718-0.215s-0.379-0.343-0.477-0.579c-0.098-0.236-0.124-0.496-0.075-0.746s0.173-0.481 0.353-0.662c0.181-0.181 0.411-0.304 0.662-0.353s0.51-0.024 0.746 0.075 0.437 0.264 0.579 0.477c0.141 0.213 0.216 0.463 0.215 0.718 0 0.341-0.135 0.668-0.376 0.909s-0.568 0.376-0.909 0.376zM9.721 21.691c-0.001-0.256 0.074-0.506 0.215-0.718s0.343-0.379 0.579-0.477c0.236-0.098 0.496-0.124 0.746-0.075s0.481 0.173 0.662 0.353c0.181 0.181 0.304 0.411 0.353 0.662s0.024 0.51-0.075 0.746c-0.098 0.236-0.264 0.437-0.477 0.579s-0.463 0.216-0.718 0.215c-0.34-0.001-0.667-0.137-0.907-0.378s-0.377-0.567-0.378-0.907zM19.166 21.691c0 0.255-0.076 0.505-0.218 0.717s-0.344 0.378-0.58 0.475c-0.236 0.097-0.496 0.123-0.746 0.073s-0.48-0.174-0.66-0.354c-0.18-0.181-0.303-0.411-0.352-0.662s-0.023-0.51 0.075-0.746c0.098-0.236 0.264-0.437 0.477-0.578s0.463-0.216 0.718-0.215c0.341 0.001 0.668 0.138 0.909 0.38s0.376 0.569 0.376 0.91zM15.731 21.691c0 0.255-0.076 0.504-0.217 0.717s-0.343 0.377-0.579 0.475c-0.236 0.098-0.495 0.123-0.745 0.073s-0.48-0.173-0.66-0.353c-0.18-0.18-0.303-0.41-0.353-0.66s-0.024-0.51 0.073-0.745c0.098-0.236 0.263-0.437 0.475-0.579s0.462-0.217 0.717-0.217c0.342 0 0.67 0.136 0.912 0.378s0.378 0.57 0.378 0.912z"></path>
<path fill="#0b7572" style="fill: var(--color2, #0b7572)" d="M11.006 22.121c0.237 0 0.43-0.193 0.43-0.43s-0.193-0.43-0.43-0.43c-0.237 0-0.43 0.192-0.43 0.43s0.192 0.43 0.43 0.43z"></path>
<path fill="#0b7572" style="fill: var(--color2, #0b7572)" d="M14.441 22.121c0.237 0 0.43-0.193 0.43-0.43s-0.192-0.43-0.43-0.43c-0.237 0-0.43 0.192-0.43 0.43s0.193 0.43 0.43 0.43z"></path>
<path fill="#0b7572" style="fill: var(--color2, #0b7572)" d="M17.88 22.121c0.237 0 0.43-0.193 0.43-0.43s-0.193-0.43-0.43-0.43c-0.237 0-0.43 0.192-0.43 0.43s0.192 0.43 0.43 0.43z"></path>
<path fill="#0b7572" style="fill: var(--color2, #0b7572)" d="M21.315 22.121c0.237 0 0.43-0.193 0.43-0.43s-0.193-0.43-0.43-0.43c-0.237 0-0.43 0.192-0.43 0.43s0.192 0.43 0.43 0.43z"></path>
</symbol>
<symbol id="icon-goods" viewBox="0 0 32 32">
<path fill="#e9e9ec" style="fill: var(--color7, #e9e9ec)" d="M32 16c0 8.837-7.163 16-16 16s-16-7.163-16-16c0-8.837 7.163-16 16-16s16 7.163 16 16z"></path>
<path fill="#0b7572" style="fill: var(--color2, #0b7572)" d="M11.741 19.95l7.158 2.991v-7.286l-7.158-2.659v6.954z"></path>
<path fill="#0b7572" style="fill: var(--color2, #0b7572)" d="M24.397 16.141l-1.994 0.716v-2.020l-2.633 0.92v7.184l7.414-2.991v-6.826l-2.787 0.997v2.020zM22.020 21.305l-0.307 0.128v-1.611l0.307-0.102v1.585zM22.556 21.1l-0.307 0.128v-1.611l0.307-0.102v1.585zM23.63 20.666l-0.307 0.102v-1.585l0.307-0.102v1.585zM24.167 20.436l-0.307 0.128v-1.559l0.307-0.102v1.534zM25.241 18.467l0.307-0.102v1.508l-0.307 0.128v-1.534zM24.627 18.697l0.307-0.102v1.534l-0.307 0.128v-1.559z"></path>
<path fill="#0b7572" style="fill: var(--color2, #0b7572)" d="M24.396 13.124l2.787-1.023-7.721-2.71-2.48 0.869 7.414 2.812v0.051z"></path>
<path fill="#0b7572" style="fill: var(--color2, #0b7572)" d="M14.783 11.028l-3.042 1.074 7.721 2.812 2.914-1.048-7.593-2.838z"></path>
<path fill="#0b7572" style="fill: var(--color2, #0b7572)" d="M4.174 19.285h6.34v-1.278h-5.752l-0.588 1.278z"></path>
<path fill="#0b7572" style="fill: var(--color2, #0b7572)" d="M5.223 17.036h5.292v-1.278h-4.704l-0.588 1.278z"></path>
<path fill="#0b7572" style="fill: var(--color2, #0b7572)" d="M6.271 14.709v0.102h4.244v-1.278h-3.681l-0.562 1.176z"></path>
</symbol>
<symbol id="icon-bag" viewBox="0 0 32 32">
<path fill="#e9e9ec" style="fill: var(--color7, #e9e9ec)" d="M32 16c0 8.837-7.163 16-16 16s-16-7.163-16-16c0-8.837 7.163-16 16-16s16 7.163 16 16z"></path>
<path fill="#0b7572" style="fill: var(--color2, #0b7572)" d="M24.087 11.136h-16.172c-0.195 0-0.376 0.080-0.506 0.21s-0.21 0.307-0.21 0.506v11.55c0 0.195 0.080 0.376 0.21 0.506s0.307 0.21 0.506 0.21h16.172c0.195 0 0.376-0.080 0.503-0.21 0.13-0.13 0.21-0.307 0.21-0.506v-11.55c0-0.195-0.080-0.376-0.21-0.506s-0.307-0.21-0.503-0.21zM16.338 18.647v3.71c0 0.184-0.152 0.336-0.336 0.336s-0.336-0.152-0.336-0.336v-3.71c-0.344-0.134-0.586-0.466-0.586-0.857 0-0.51 0.412-0.922 0.922-0.922s0.922 0.412 0.922 0.922c0 0.391-0.242 0.723-0.586 0.857z"></path>
<path fill="#0b7572" style="fill: var(--color2, #0b7572)" d="M23.18 12.561h-14.356c0.058-1.895 0.85-3.605 2.101-4.857 1.298-1.302 3.095-2.105 5.077-2.105s3.779 0.806 5.077 2.105c1.251 1.251 2.043 2.962 2.101 4.857zM21.658 11.241c-0.264-0.976-0.781-1.873-1.512-2.6-1.103-1.103-2.582-1.718-4.144-1.718s-3.041 0.615-4.144 1.718c-0.73 0.73-1.248 1.624-1.512 2.6h11.311z"></path>
</symbol>
<symbol id="icon-dolar" viewBox="0 0 32 32">
<path fill="#e9e9ec" style="fill: var(--color7, #e9e9ec)" d="M32 16c0 8.837-7.163 16-16 16s-16-7.163-16-16c0-8.837 7.163-16 16-16s16 7.163 16 16z"></path>
<path fill="#0b7572" style="fill: var(--color2, #0b7572)" d="M11.016 11.016c1.275-1.275 3.039-2.066 4.984-2.066s3.709 0.791 4.984 2.066c1.275 1.275 2.066 3.039 2.066 4.984s-0.791 3.709-2.066 4.984c-1.275 1.275-3.039 2.066-4.984 2.066s-3.709-0.791-4.984-2.066c-1.275-1.275-2.066-3.039-2.066-4.984s0.791-3.709 2.066-4.984zM24.8 16c0-2.43-0.987-4.63-2.578-6.222s-3.792-2.578-6.222-2.578c-2.43 0-4.63 0.987-6.222 2.578s-2.578 3.792-2.578 6.222 0.987 4.63 2.578 6.222c1.592 1.592 3.792 2.578 6.222 2.578s4.63-0.987 6.222-2.578c1.592-1.591 2.578-3.791 2.578-6.222z"></path>
<path fill="#0b7572" style="fill: var(--color2, #0b7572)" d="M13.966 13.996c0-0.626 0.22-1.131 0.663-1.516 0.296-0.261 0.736-0.419 1.317-0.478v-0.419h0.519v0.419c0.509 0.048 0.914 0.199 1.213 0.447 0.385 0.316 0.615 0.756 0.691 1.313l-0.907 0.137c-0.052-0.344-0.158-0.608-0.323-0.791-0.162-0.182-0.388-0.306-0.674-0.364v2.53c0.44 0.11 0.736 0.199 0.877 0.261 0.272 0.12 0.495 0.265 0.667 0.437s0.306 0.378 0.399 0.615c0.093 0.237 0.141 0.495 0.141 0.77 0 0.608-0.196 1.114-0.581 1.523s-0.887 0.626-1.502 0.653v0.887h-0.519v-0.877c-0.44-0.055-0.794-0.155-1.069-0.296s-0.512-0.371-0.712-0.684c-0.199-0.316-0.316-0.701-0.347-1.155l0.883-0.165c0.069 0.471 0.189 0.818 0.361 1.038 0.248 0.313 0.543 0.485 0.887 0.523v-2.791c-0.361-0.069-0.729-0.21-1.107-0.419-0.278-0.158-0.495-0.371-0.646-0.65-0.151-0.275-0.227-0.588-0.227-0.942l-0.003-0.007zM22.463 16c0-1.784-0.722-3.4-1.894-4.569-1.169-1.169-2.784-1.894-4.568-1.894s-3.4 0.722-4.568 1.894c-1.169 1.169-1.894 2.784-1.894 4.569s0.722 3.4 1.894 4.568c1.169 1.169 2.784 1.894 4.568 1.894s3.4-0.722 4.568-1.894c1.169-1.169 1.894-2.784 1.894-4.568z"></path>
<path fill="#0b7572" style="fill: var(--color2, #0b7572)" d="M15.946 15.161v-2.427c-0.34 0.052-0.612 0.189-0.808 0.409s-0.296 0.481-0.296 0.787c0 0.299 0.083 0.55 0.251 0.749 0.168 0.203 0.45 0.364 0.849 0.481h0.003z"></path>
<path fill="#0b7572" style="fill: var(--color2, #0b7572)" d="M17.64 17.413c0-0.316-0.079-0.574-0.237-0.767s-0.474-0.368-0.945-0.519v2.671c0.34-0.041 0.622-0.189 0.846-0.443s0.333-0.567 0.333-0.942h0.003z"></path>
</symbol>
<symbol id="icon-form" viewBox="0 0 32 32">
<path fill="#e9e9ec" style="fill: var(--color7, #e9e9ec)" d="M32 16c0 8.837-7.163 16-16 16s-16-7.163-16-16c0-8.837 7.163-16 16-16s16 7.163 16 16z"></path>
<path fill="#0b7572" style="fill: var(--color2, #0b7572)" d="M10.467 20.698h2.761c0.182 0 0.329 0.147 0.329 0.329v2.761c0 0.182-0.147 0.329-0.329 0.329h-2.761c-0.182 0-0.329-0.147-0.329-0.329v-2.761c0-0.182 0.147-0.329 0.329-0.329zM21.445 16.843h-5.062c-0.182 0-0.329-0.147-0.329-0.329s0.147-0.329 0.329-0.329h5.062c0.182 0 0.329 0.147 0.329 0.329s-0.147 0.329-0.329 0.329zM13.762 10.153l-2.583 2.583c-0.019 0.023-0.046 0.043-0.073 0.058-0.159 0.089-0.356 0.039-0.449-0.12l-0.781-1.353c-0.089-0.155-0.039-0.356 0.12-0.449 0.155-0.089 0.356-0.039 0.449 0.12l0.568 0.986 2.285-2.285c0.128-0.128 0.336-0.128 0.464 0s0.128 0.336 0 0.464v-0.004zM12.076 6h-3.747c-0.182 0-0.329 0.147-0.329 0.329v19.141c0 0.182 0.147 0.329 0.329 0.329h14.95c0.182 0 0.329-0.147 0.329-0.329v-19.141c0-0.182-0.147-0.329-0.329-0.329h-3.747v1.79c0 0.182-0.147 0.329-0.329 0.329h-6.798c-0.182 0-0.329-0.147-0.329-0.329v-1.79zM16.055 22.407c0-0.182 0.147-0.329 0.329-0.329h5.062c0.182 0 0.329 0.147 0.329 0.329s-0.147 0.329-0.329 0.329h-5.062c-0.182 0-0.329-0.147-0.329-0.329zM13.762 15.455l-2.583 2.583c-0.019 0.023-0.046 0.043-0.073 0.058-0.159 0.089-0.356 0.039-0.449-0.12l-0.781-1.353c-0.089-0.155-0.039-0.356 0.12-0.449 0.155-0.089 0.356-0.039 0.449 0.12l0.568 0.986 2.285-2.285c0.128-0.128 0.336-0.128 0.464 0s0.128 0.336 0 0.464v-0.004zM16.383 11.541c-0.182 0-0.329-0.147-0.329-0.329s0.147-0.329 0.329-0.329h5.062c0.182 0 0.329 0.147 0.329 0.329s-0.147 0.329-0.329 0.329h-5.062z"></path>
<path fill="#0b7572" style="fill: var(--color2, #0b7572)" d="M19.202 6.012h-6.798v1.779h6.798v-1.779z"></path>
</symbol>
<symbol id="icon-planet" viewBox="0 0 32 32">
<path fill="#e9e9ec" style="fill: var(--color7, #e9e9ec)" d="M32 16c0 8.837-7.163 16-16 16s-16-7.163-16-16c0-8.837 7.163-16 16-16s16 7.163 16 16z"></path>
<path fill="#0b7572" style="fill: var(--color2, #0b7572)" d="M8.915 11.604c-1.078 1.462-1.715 3.268-1.715 5.225s0.637 3.763 1.715 5.225c0.978-0.361 2.068-0.648 3.238-0.848 0.138-0.023 0.276-0.046 0.414-0.065-0.269-1.289-0.418-2.754-0.418-4.308 0-0.717 0.031-1.415 0.092-2.087l-0.295 0.479-2.095-3.303c-0.322-0.096-0.637-0.203-0.936-0.315v-0.004z"></path>
<path fill="#0b7572" style="fill: var(--color2, #0b7572)" d="M12.248 21.778c-1.063 0.18-2.056 0.437-2.95 0.756 0.23 0.272 0.476 0.529 0.74 0.767 1.22 1.124 2.754 1.907 4.458 2.198-0.491-0.495-0.928-1.224-1.285-2.137-0.196-0.499-0.368-1.055-0.518-1.657-0.15 0.023-0.299 0.046-0.445 0.073z"></path>
<path fill="#0b7572" style="fill: var(--color2, #0b7572)" d="M13.28 21.628c0.138 0.552 0.299 1.063 0.479 1.523 0.598 1.531 1.393 2.478 2.244 2.478s1.646-0.948 2.244-2.478c0.18-0.46 0.341-0.971 0.48-1.523-0.871-0.104-1.784-0.161-2.72-0.161-0.94 0-1.849 0.054-2.72 0.161h-0.008z"></path>
<path fill="#0b7572" style="fill: var(--color2, #0b7572)" d="M12.735 16.825c0 1.531 0.15 2.973 0.414 4.227 0.917-0.111 1.872-0.173 2.854-0.173s1.937 0.061 2.854 0.173c0.265-1.258 0.414-2.697 0.414-4.227s-0.15-2.973-0.414-4.227c-0.917 0.111-1.872 0.173-2.854 0.173-0.848 0-1.676-0.046-2.474-0.13l-0.357 0.579-0.196 0.318c-0.157 1.017-0.242 2.125-0.242 3.291v-0.004z"></path>
<path fill="#0b7572" style="fill: var(--color2, #0b7572)" d="M13.867 12.088c0.691 0.065 1.404 0.096 2.133 0.096 0.94 0 1.849-0.054 2.72-0.161-0.138-0.552-0.299-1.063-0.48-1.523-0.598-1.531-1.393-2.478-2.244-2.478-0.253 0-0.503 0.084-0.744 0.245 0.012 0.073 0.019 0.15 0.023 0.226 0 0.004 0 0.011 0 0.015 0 0.008 0 0.019 0.004 0.027 0.004 0.038 0.008 0.077 0.008 0.115 0 0.004 0 0.004 0 0.011 0 0.046 0 0.088 0 0.134 0 0.675-0.28 1.419-0.633 1.991l-0.794 1.297 0.008 0.004z"></path>
<path fill="#0b7572" style="fill: var(--color2, #0b7572)" d="M18.788 10.289c0.196 0.499 0.368 1.055 0.518 1.657 0.15-0.023 0.299-0.046 0.445-0.073 1.063-0.18 2.056-0.437 2.95-0.756-0.23-0.272-0.48-0.529-0.74-0.771-1.216-1.12-2.754-1.903-4.454-2.198 0.491 0.495 0.928 1.224 1.285 2.137l-0.004 0.004z"></path>
<path fill="#0b7572" style="fill: var(--color2, #0b7572)" d="M19.433 12.518c0.268 1.289 0.418 2.754 0.418 4.308s-0.15 3.019-0.418 4.308c0.138 0.019 0.276 0.042 0.414 0.065 1.17 0.199 2.259 0.487 3.238 0.848 1.078-1.462 1.715-3.268 1.715-5.225s-0.637-3.763-1.715-5.225c-0.978 0.361-2.068 0.648-3.238 0.848-0.138 0.023-0.276 0.046-0.414 0.065v0.008z"></path>
<path fill="#0b7572" style="fill: var(--color2, #0b7572)" d="M19.307 21.709c-0.146 0.602-0.322 1.159-0.518 1.657-0.357 0.909-0.79 1.642-1.285 2.137 1.703-0.295 3.238-1.074 4.454-2.198 0.261-0.242 0.51-0.499 0.74-0.771-0.894-0.318-1.887-0.572-2.95-0.756-0.146-0.027-0.295-0.050-0.445-0.073l0.004 0.004z"></path>
<path fill="#0b7572" style="fill: var(--color2, #0b7572)" d="M12.827 9.241c-0.238 0.238-0.568 0.387-0.932 0.387s-0.694-0.146-0.932-0.387c-0.238-0.238-0.387-0.568-0.387-0.932s0.146-0.694 0.387-0.932c0.238-0.238 0.568-0.387 0.932-0.387s0.694 0.146 0.932 0.387c0.238 0.238 0.387 0.568 0.387 0.932s-0.146 0.694-0.387 0.932zM12.697 12.878c-0.008 0.011-0.015 0.023-0.023 0.035l0.023-0.035zM14.7 8.547c0 0.004 0 0.008 0 0.008 0-0.004 0-0.008 0-0.008zM9.912 6.813c-0.51 0.51-0.825 1.212-0.825 1.987 0 0.472 0.257 1.128 0.633 1.837 0.004 0.004 0.008 0.008 0.015 0.011 0.019 0.019 0.038 0.042 0.050 0.065l0.253 0.399c0.004 0.004 0.004 0.008 0.008 0.011l1.899 2.992 0.407-0.66c0.008-0.011 0.015-0.027 0.023-0.038l0.307-0.499 0.023-0.038 1.469-2.394c0.326-0.656 0.545-1.251 0.545-1.684 0-0.050 0-0.084 0-0.111 0-0.004 0-0.008 0-0.008 0-0.023-0.004-0.054-0.008-0.092 0-0.008 0-0.015-0.004-0.027 0-0.004 0-0.008 0-0.008-0.061-0.675-0.361-1.281-0.813-1.734-0.51-0.51-1.212-0.825-1.987-0.825s-1.477 0.315-1.987 0.825l-0.008-0.011z"></path>
</symbol>
<symbol id="icon-factory" viewBox="0 0 32 32">
<path fill="#e9e9ec" style="fill: var(--color7, #e9e9ec)" d="M32 16c0 8.837-7.163 16-16 16s-16-7.163-16-16c0-8.837 7.163-16 16-16s16 7.163 16 16z"></path>
<path fill="#0b7572" style="fill: var(--color2, #0b7572)" d="M13.93 7.304c-1.245 2.687-4.237 0.453-5.797 2.070 0.363-2.782 2.791-0.54 5.797-2.070zM10.203 9.789v5.072l2.899 1.553v-2.899l5.797 2.899v-2.899l5.797 2.899v8.282h-17.391v-14.907h2.899zM22.418 19.105h-2.899v2.484h2.899v-2.484zM17.449 19.105h-2.899v2.484h2.899v-2.484zM12.48 19.105h-2.899v2.484h2.899v-2.484z"></path>
</symbol>
<symbol id="icon-gasprom" viewBox="0 0 67 32">
<path fill="#0079c2" style="fill: var(--color8, #0079c2)" d="M20.502 20.865h4.213v1.377h-2.004v9.672h-2.209v-11.048z"></path>
<path fill="#0079c2" style="fill: var(--color8, #0079c2)" d="M27.213 27.765l0.378-5.524h0.127l0.378 5.524h-0.884zM24.767 31.913h2.163l0.205-2.934h1.041l0.206 2.934h2.162l-1.152-11.048h-3.472l-1.152 11.048z"></path>
<path fill="#0079c2" style="fill: var(--color8, #0079c2)" d="M33.706 28.046v2.083c0 0.281 0.217 0.362 0.344 0.362 0.208 0 0.353-0.172 0.353-0.362v-2.572c0-0.344-0.063-0.724-0.887-0.724h-0.897v-1.213h0.933c0.625 0 0.851-0.145 0.851-0.824v-2.192c0-0.19-0.145-0.362-0.353-0.362-0.127 0-0.344 0.072-0.344 0.362v1.802h-2.21v-1.567c0-0.77 0.091-1.974 1.639-1.974h1.829c1.549 0 1.648 1.204 1.648 1.974v1.766c0 1.204-0.842 1.53-1.503 1.503v0.109c1.485-0.036 1.503 1.105 1.503 1.494v2.228c0 0.779-0.1 1.974-1.648 1.974h-1.829c-1.549 0-1.639-1.195-1.639-1.974v-1.893h2.21z"></path>
<path fill="#0079c2" style="fill: var(--color8, #0079c2)" d="M38.062 20.865h5.117v11.048h-2.21v-9.672h-0.697v9.672h-2.21v-11.048z"></path>
<path fill="#0079c2" style="fill: var(--color8, #0079c2)" d="M46.837 26.941v-4.7h0.29c0.235 0 0.408 0.199 0.408 0.552v3.595c0 0.353-0.172 0.552-0.408 0.552h-0.29zM44.627 31.913h2.21v-3.758h1.268c1.539 0 1.639-1.195 1.639-1.974v-3.342c0-0.77-0.1-1.974-1.639-1.974h-3.477v11.048z"></path>
<path fill="#0079c2" style="fill: var(--color8, #0079c2)" d="M54.1 30.129c0 0.19-0.145 0.362-0.353 0.362-0.127 0-0.344-0.082-0.344-0.362v-7.526c0-0.29 0.217-0.362 0.344-0.362 0.208 0 0.353 0.172 0.353 0.362v7.526zM51.193 29.939c0 0.779 0.1 1.974 1.639 1.974h1.838c1.54 0 1.639-1.195 1.639-1.974v-7.1c0-0.77-0.099-1.974-1.639-1.974h-1.838c-1.54 0-1.639 1.204-1.639 1.974v7.1z"></path>
<path fill="#0079c2" style="fill: var(--color8, #0079c2)" d="M63.5 20.865h2.88v11.048h-2.21v-6.928h-0.081l-1.141 6.928h-1.766l-1.132-6.928h-0.081v6.928h-2.21v-11.048h2.871l1.439 7.77 1.431-7.77z"></path>
<path fill="#0079c2" style="fill: var(--color8, #0079c2)" d="M17.639 5.76c-0.676-2.961-2.372-5.37-2.605-5.76-0.369 0.552-1.722 2.681-2.409 5.035-0.751 2.635-0.861 4.972-0.602 7.263 0.257 2.3 1.229 4.664 1.229 4.664 0.516 1.232 1.29 2.563 1.793 3.215 0.738-0.96 2.434-3.822 2.963-7.553 0.294-2.083 0.307-3.903-0.369-6.864zM15.034 19.434c-0.332-0.625-0.848-1.811-0.897-3.659-0.013-1.775 0.7-3.305 0.908-3.622 0.186 0.317 0.8 1.648 0.873 3.468 0.050 1.775-0.541 3.179-0.884 3.813zM17.443 10.786c-0.025 1.132-0.16 2.327-0.332 3.043 0.062-1.232-0.086-2.961-0.369-4.32-0.283-1.349-1.082-3.613-1.721-4.655-0.59 0.996-1.316 2.952-1.696 4.646-0.382 1.693-0.393 3.749-0.393 4.365-0.101-0.516-0.355-2.373-0.283-4.229 0.060-1.53 0.418-3.115 0.615-3.84 0.75-2.418 1.598-3.966 1.758-4.211 0.159 0.244 1.228 2.155 1.782 4.157 0.551 2.001 0.663 3.921 0.639 5.044z"></path>
<path fill="#0079c2" style="fill: var(--color8, #0079c2)" d="M16.181 20.865h-5.143v3.45c0.005 0 0.008-0.009 0.013-0.009 1.212-1.213 3.177-1.213 4.389 0 1.212 1.204 1.212 3.17 0 4.383-0.005 0.009-0.011 0.009-0.016 0.018-0.006 0-0.013 0.009-0.018 0.018-1.209 1.195-2.788 1.793-4.368 1.793-1.587 0-3.173-0.598-4.383-1.811-2.134-2.128-2.386-5.434-0.76-7.842 0.219-0.326 0.472-0.634 0.76-0.924 1.21-1.214 2.796-1.811 4.383-1.811v-8.295c-6.096 0-11.038 4.935-11.038 11.030s4.942 11.039 11.038 11.039c3.179 0 6.042-1.349 8.056-3.496v-7.544h-2.913z"></path>
</symbol>
<symbol id="icon-rossneft" viewBox="0 0 40 32">
<path d="M0 0h40.364v32h-40.364v-32z"></path>
</symbol>
<symbol id="icon-rosatom" viewBox="0 0 25 32">
<path d="M0 0h25.455v32h-25.455v-32z"></path>
</symbol>
<symbol id="icon-clip" viewBox="0 0 35 32">
<path fill="#fff" style="fill: var(--color3, #fff)" d="M32.707 2.703c-3.549-3.604-9.303-3.604-12.853 0l-17.993 18.272c-2.481 2.519-2.481 6.616 0 9.136s6.516 2.519 8.997 0l17.993-18.272c1.413-1.435 1.413-3.786 0-5.22s-3.728-1.435-5.141-0l-15.423 15.662c-0.086 0.085-0.155 0.187-0.203 0.3s-0.072 0.233-0.073 0.356c-0.001 0.122 0.022 0.244 0.068 0.357s0.113 0.216 0.198 0.303c0.085 0.087 0.187 0.155 0.298 0.201s0.231 0.070 0.351 0.069c0.12-0.001 0.24-0.026 0.35-0.074s0.211-0.118 0.295-0.206l15.423-15.661c0.723-0.734 1.847-0.734 2.57 0s0.723 1.876 0 2.61l-17.993 18.272c-1.791 1.819-4.635 1.819-6.426 0s-1.791-4.707 0-6.526l17.993-18.272c2.859-2.903 7.423-2.903 10.282 0s2.859 7.538 0 10.441l-15.423 15.661c-0.086 0.085-0.155 0.187-0.202 0.299s-0.072 0.233-0.073 0.356 0.022 0.243 0.068 0.357c0.046 0.113 0.113 0.216 0.198 0.302s0.186 0.155 0.298 0.201c0.111 0.046 0.231 0.070 0.351 0.069s0.239-0.026 0.35-0.074c0.111-0.048 0.211-0.118 0.295-0.205l15.423-15.661c3.549-3.604 3.549-9.447 0-13.051z"></path>
</symbol>
<symbol id="icon-doc" viewBox="0 0 24 32">
<path fill="#737587" style="fill: var(--color9, #737587)" d="M15.398 0.33l-0.401-0.33h-11.699c-1.819 0-3.298 1.49-3.298 3.324v25.352c0 1.832 1.479 3.324 3.298 3.324h17.404c1.817 0 3.297-1.492 3.297-3.324v-19.556c-0-0.689-0-1.721-8.602-8.79zM15.691 4.391c2.083 1.779 4.057 3.565 4.986 4.565h-4.986v-4.565zM20.703 29.069h-17.404c-0.215 0-0.389-0.176-0.389-0.393v-25.352c0-0.217 0.175-0.393 0.389-0.393h9.484v7.491c0 0.811 0.651 1.466 1.454 1.466h6.854v16.788c-0 0.217-0.176 0.393-0.388 0.393z"></path>
</symbol>
<symbol id="icon-skype" viewBox="0 0 32 32">
<path fill="#0b7572" style="fill: var(--color2, #0b7572)" d="M30.867 18.671c-0.010 0.056-0.028-0.051 0 0 0.165-0.901 0.252-1.824 0.252-2.746 0-2.045-0.399-4.028-1.188-5.896-0.761-1.804-1.85-3.424-3.239-4.814-1.386-1.391-3.003-2.483-4.802-3.246-1.862-0.79-3.841-1.19-5.881-1.19-0.961 0-1.924 0.090-2.861 0.271-0.002 0-0.007 0.001-0.007 0.001-1.286-0.685-2.731-1.051-4.195-1.051-2.389 0-4.636 0.933-6.325 2.627s-2.62 3.946-2.62 6.341c0 1.525 0.391 3.023 1.125 4.347-0.149 0.858-0.228 1.735-0.228 2.611 0 2.045 0.399 4.029 1.188 5.896 0.76 1.805 1.85 3.423 3.237 4.814 1.388 1.391 3.003 2.484 4.804 3.245 1.863 0.792 3.842 1.192 5.882 1.192 0.888 0 1.778-0.081 2.646-0.236 1.338 0.759 2.854 1.162 4.401 1.162 2.389 0 4.634-0.931 6.324-2.626 1.69-1.692 2.62-3.945 2.62-6.34 0-1.53-0.393-3.033-1.133-4.363zM16.069 25.202c-5.368 0-7.77-2.646-7.77-4.628 0-1.017 0.749-1.73 1.781-1.73 2.297 0 1.703 3.307 5.989 3.307 2.194 0 3.406-1.194 3.406-2.416 0-0.735-0.362-1.55-1.807-1.907l-4.775-1.195c-3.846-0.967-4.543-3.050-4.543-5.009 0-4.067 3.82-5.594 7.407-5.594 3.305 0 7.2 1.831 7.2 4.271 0 1.046-0.903 1.653-1.935 1.653-1.96 0-1.6-2.72-5.549-2.72-1.96 0-3.045 0.89-3.045 2.162 0 1.271 1.548 1.677 2.892 1.983l3.534 0.787c3.871 0.865 4.853 3.13 4.853 5.264 0 3.305-2.53 5.773-7.638 5.773z"></path>
</symbol>
</defs>
</svg>
